<svg width="738" height="492" viewBox="0 0 738 492" fill="none" xmlns="http://www.w3.org/2000/svg">
<g id="undraw_download_files_aydf 1">
<g clip-path="url(#clip0)">
<path id="Vector" d="M60.4178 365.727L54.8849 343.488C45.0742 339.252 35.0369 335.582 24.8206 332.497L24.122 342.832L21.2891 331.446C8.61929 327.759 0 326.135 0 326.135C0 326.135 11.6427 371.251 36.0624 405.743L64.5167 410.836L42.4113 414.084C45.4844 417.851 48.7869 421.417 52.2993 424.762C87.8231 458.363 127.39 473.779 140.674 459.195C153.959 444.611 135.93 405.55 100.406 371.949C89.3935 361.532 75.5592 353.173 61.7111 346.594L60.4178 365.727Z" fill="#E6E6E6"/>
<path id="Vector_2" d="M369 492C572.793 492 738 482.779 738 471.405C738 460.031 572.793 450.811 369 450.811C165.207 450.811 0 460.031 0 471.405C0 482.779 165.207 492 369 492Z" fill="#E6E6E6"/>
<g id="Frame 2">
<g id="Frame 1">
<path id="Vector_3" d="M126.487 380.585C125.935 380.572 125.4 380.782 125 381.17C124.6 381.557 124.367 382.091 124.353 382.653V463.691C124.367 464.253 124.6 464.786 125 465.174C125.4 465.561 125.935 465.771 126.487 465.758H224.2C224.752 465.771 225.286 465.561 225.686 465.174C226.086 464.786 226.319 464.253 226.334 463.691V382.653C226.319 382.091 226.086 381.557 225.686 381.17C225.286 380.782 224.752 380.572 224.2 380.585H126.487Z" fill="#E6E6E6"/>
<path id="Vector_4" d="M113.04 341.576L119.584 319.625C113.335 310.831 106.604 302.402 99.423 294.38L93.5826 302.859L96.9331 291.62C87.9572 281.791 81.4025 275.861 81.4025 275.861C81.4025 275.861 68.4841 320.614 71.8925 363.003L93.6671 382.351L73.0965 373.488C73.8163 378.331 74.8343 383.124 76.1446 387.837C89.5104 435.313 115.561 469.351 134.331 463.864C153.101 458.376 157.482 415.442 144.116 367.966C139.972 353.248 132.37 338.805 123.852 325.879L113.04 341.576Z" fill="#E6E6E6"/>
<path id="Vector_5" d="M222.558 333.383C222.558 333.383 320.535 289.222 330.584 320.582C340.633 351.943 265.894 404.424 265.894 404.424L234.491 395.464L277.199 363.463C277.199 363.463 218.789 405.704 189.27 396.103C159.751 386.503 145.934 359.623 145.934 359.623L222.558 333.383Z" fill="#2F2E41"/>
<path id="Vector_6" d="M266.522 399.944L253.333 423.624C253.333 423.624 257.729 451.784 270.918 454.984C284.108 458.184 292.9 467.144 282.223 469.065C271.546 470.985 244.54 472.905 240.143 463.304C235.747 453.704 225.07 436.424 225.07 436.424L227.582 459.464L215.021 460.104L213.137 433.864C212.282 431.04 212.122 428.046 212.67 425.145C213.217 422.243 214.456 419.523 216.277 417.224C222.558 408.904 240.799 392.634 240.799 392.634L266.522 399.944Z" fill="#2F2E41"/>
<path id="Vector_7" d="M248.623 203.14L186.418 208.806L167.501 156.277L221.83 142.94L248.623 203.14Z" fill="#DE6D43"/>
<path id="Vector_8" d="M175.453 351.943C175.453 351.943 274.059 348.743 258.357 387.143C242.656 425.544 188.014 426.184 188.014 426.184L175.453 435.144C175.453 435.144 158.495 424.904 159.123 408.264L179.849 399.304C179.849 399.304 132.745 425.544 127.092 389.063C121.44 352.583 175.453 351.943 175.453 351.943Z" fill="#2F2E41"/>
<path id="Vector_9" d="M164.776 408.904C164.776 408.904 119.241 410.504 122.382 425.224C125.522 439.944 119.555 465.865 119.555 465.865L130.233 469.705L133.373 447.304C133.373 447.304 135.885 481.225 149.702 481.865C163.52 482.505 192.411 488.265 191.783 481.865C191.155 475.465 169.172 462.665 169.172 462.665L167.916 440.264L175.453 430.664L164.776 408.904Z" fill="#2F2E41"/>
<path id="Vector_10" d="M199.319 201.541C215.275 201.541 228.21 188.36 228.21 172.1C228.21 155.841 215.275 142.66 199.319 142.66C183.363 142.66 170.428 155.841 170.428 172.1C170.428 188.36 183.363 201.541 199.319 201.541Z" fill="#FFB8B8"/>
<path id="Vector_11" d="M175.453 177.22C175.453 177.22 174.825 203.461 159.123 206.661C143.422 209.861 146.876 224.901 146.876 224.901L173.569 259.782L206.856 222.661L209.996 209.221C209.996 209.221 196.179 214.981 199.319 206.661C201.152 201.876 202.622 196.955 203.716 191.941L175.453 177.22Z" fill="#FFB8B8"/>
<path id="Vector_12" d="M173.929 221.143C172.413 217.58 169.576 212.444 164.462 205.061C164.462 205.061 113.903 213.701 120.184 258.502C126.464 303.302 128.348 335.303 128.348 335.303C128.348 335.303 128.324 335.372 128.278 335.508C123.411 349.729 120.866 367.047 124.266 381.703C126.243 390.228 127.72 393.544 127.72 393.544C127.72 393.544 126.464 358.983 180.477 353.863C234.491 348.743 230.408 326.023 230.408 326.023L221.615 215.301C221.444 211.329 223.004 205.77 219.103 205.701C210.83 205.555 203.528 204.516 199.319 206.661C194.606 209.062 199.442 221.915 189.941 227.1C188.517 227.845 186.957 228.282 185.36 228.384C183.762 228.485 182.161 228.249 180.657 227.689C179.153 227.13 177.779 226.26 176.621 225.133C175.464 224.007 174.547 222.648 173.929 221.143Z" fill="#3F3D56"/>
<path id="Vector_13" d="M220.634 135.08C220.634 135.08 233.652 139.502 234.465 156.914C234.564 159.845 234.261 162.776 233.564 165.622C232.817 168.848 232.338 175.814 238.213 184.914C242.051 190.819 245.542 196.951 248.669 203.277V203.277L234.199 205.12L231.123 180.679C229.631 168.829 226.435 157.268 221.638 146.367L221.538 146.139C221.538 146.139 215.208 158.12 202.546 158.12L207.068 153.512C207.068 153.512 191.391 160.047 182.808 161.515C181.829 161.683 180.913 162.12 180.159 162.779C179.405 163.438 178.842 164.294 178.53 165.255C178.218 166.216 178.17 167.245 178.389 168.232C178.609 169.22 179.089 170.127 179.777 170.856C179.83 170.911 179.883 170.966 179.937 171.022C185.363 176.551 196.216 189.453 189.885 199.591C183.555 209.728 188.981 212.493 188.981 212.493L179.033 206.963L174.511 204.198V207.885L150.997 205.12C150.997 205.12 144.667 204.198 158.232 188.532C158.232 188.532 161.814 182.448 160.247 177.2C158.959 173.213 158.621 168.97 159.26 164.822C162.299 147.546 174.222 113.198 220.634 135.08Z" fill="#DE6D43"/>
<path id="Vector_14" opacity="0.2" d="M139.366 308.343L131.802 327.943L141.223 312.2L139.366 308.343Z" fill="black"/>
<path id="Vector_15" d="M126.464 281.542L159.123 349.383L236.375 360.263C236.375 360.263 264.01 406.984 270.29 397.383C276.571 387.783 246.424 347.463 246.424 347.463L172.313 325.062L149.074 275.782L126.464 281.542Z" fill="#FFB8B8"/>
<path id="Vector_16" d="M220.533 249.29L253.192 317.131L330.444 328.012C330.444 328.012 377.422 343.664 383.702 334.064C389.983 324.464 340.493 315.211 340.493 315.211L266.382 292.811L243.144 243.53L220.533 249.29Z" fill="#FFB8B8"/>
<path id="Vector_17" d="M140.595 215.301C140.595 215.301 124.894 219.781 121.126 234.501C117.357 249.221 131.803 327.943 131.803 327.943C131.803 327.943 147.818 280.902 156.611 284.102C156.611 284.102 157.553 222.341 140.595 215.301Z" fill="#3F3D56"/>
<path id="Vector_18" d="M208.112 207.941C208.112 207.941 216.905 200.901 224.442 210.501C231.979 220.101 265.58 276.742 265.58 276.742C265.58 276.742 216.277 271.942 216.277 275.142L208.112 207.941Z" fill="#3F3D56"/>
<path id="Vector_19" d="M222.969 195.329C213.413 200.797 203.394 200.575 192.966 195.329C196 188.204 191.464 182.623 189.136 175.43L228.075 173.838C225.098 180.087 220.704 187.47 222.969 195.329Z" fill="white"/>
<path id="Vector_20" d="M184.423 175.759L184.64 176.521L189.59 176.701L189.373 175.938L184.423 175.759Z" fill="white"/>
<path id="Vector_21" d="M223.983 187.119L221.359 195.114L221.992 195.565L224.616 187.569L223.983 187.119Z" fill="white"/>
<path id="Vector_22" d="M187.684 180.64L187.164 181.116L193.992 195.709L194.512 195.233L187.684 180.64Z" fill="white"/>
</g>
</g>
</g>
</g>
<defs>
<clipPath id="clip0">
<path d="M0 0H738V492H0V0Z" fill="white"/>
</clipPath>
</defs>
</svg>
